<svg width="77" height="77" viewBox="0 0 77 77" fill="none" xmlns="http://www.w3.org/2000/svg">
<path d="M57.8372 41.9057H41.9516V57.7913C41.9516 58.6339 41.6169 59.442 41.0211 60.0378C40.4253 60.6337 39.6172 60.9684 38.7745 60.9684C37.9319 60.9684 37.1238 60.6337 36.528 60.0378C35.9322 59.442 35.5974 58.6339 35.5974 57.7913V41.9057H19.7119C18.8693 41.9057 18.0612 41.571 17.4653 40.9752C16.8695 40.3794 16.5348 39.5713 16.5348 38.7286C16.5348 37.886 16.8695 37.0779 17.4653 36.4821C18.0612 35.8863 18.8693 35.5515 19.7119 35.5515H35.5974V19.666C35.5974 18.8234 35.9322 18.0153 36.528 17.4194C37.1238 16.8236 37.9319 16.4889 38.7745 16.4889C39.6172 16.4889 40.4253 16.8236 41.0211 17.4194C41.6169 18.0153 41.9516 18.8234 41.9516 19.666V35.5515H57.8372C58.6798 35.5515 59.4879 35.8863 60.0837 36.4821C60.6796 37.0779 61.0143 37.886 61.0143 38.7286C61.0143 39.5713 60.6796 40.3794 60.0837 40.9752C59.4879 41.571 58.6798 41.9057 57.8372 41.9057Z" fill="white"/>
</svg>
