<svg width="78" height="78" viewBox="0 0 78 78" fill="none" xmlns="http://www.w3.org/2000/svg">
<path d="M39.0436 7.1969C42.2938 7.1969 45.3025 8.85217 47.0245 11.5146L47.3518 12.061L69.9092 50.9806L70.1062 51.3809C70.6697 52.7746 70.8956 54.2818 70.7654 55.7794C70.6352 57.2771 70.1526 58.7227 69.357 59.9982C68.5614 61.2737 67.4753 62.3429 66.1876 63.1186C64.8998 63.8942 63.4469 64.3542 61.9474 64.4611L61.3151 64.4865H16.8356L16.68 64.477L16.3241 64.4833C14.9091 64.4105 13.528 64.0231 12.2815 63.3493C11.035 62.6755 9.95447 61.7322 9.11845 60.5882L8.77214 60.0798C8.0155 58.891 7.53186 57.5493 7.35606 56.1511C7.18026 54.753 7.31667 53.3332 7.75547 51.9941L7.98422 51.3777L8.17485 50.9806L30.7069 12.1151C31.531 10.6251 32.7392 9.38307 34.2059 8.51816C35.6725 7.65325 37.3441 7.19702 39.0468 7.1969H39.0436Z" fill="white"/>
</svg>
