<svg width="63" height="63" viewBox="0 0 63 63" fill="none" xmlns="http://www.w3.org/2000/svg">
<path d="M58.6596 31.3656C58.6596 32.7298 58.1177 34.0382 57.153 35.0028C56.1883 35.9675 54.88 36.5095 53.5157 36.5095H8.93536C7.57112 36.5095 6.26275 35.9675 5.29808 35.0028C4.33342 34.0382 3.79147 32.7298 3.79147 31.3656C3.79147 30.0013 4.33342 28.693 5.29808 27.7283C6.26275 26.7636 7.57112 26.2217 8.93536 26.2217H53.5157C54.88 26.2217 56.1883 26.7636 57.153 27.7283C58.1177 28.693 58.6596 30.0013 58.6596 31.3656Z" fill="white"/>
<path d="M31.2255 19.3633C35.0133 19.3633 38.084 16.2926 38.084 12.5048C38.084 8.7169 35.0133 5.64624 31.2255 5.64624C27.4376 5.64624 24.3669 8.7169 24.3669 12.5048C24.3669 16.2926 27.4376 19.3633 31.2255 19.3633Z" fill="white"/>
<path d="M31.2255 57.0851C35.0133 57.0851 38.084 54.0144 38.084 50.2266C38.084 46.4387 35.0133 43.368 31.2255 43.368C27.4376 43.368 24.3669 46.4387 24.3669 50.2266C24.3669 54.0144 27.4376 57.0851 31.2255 57.0851Z" fill="white"/>
</svg>
