<svg width="77" height="77" viewBox="0 0 77 77" fill="none" xmlns="http://www.w3.org/2000/svg">
<path d="M57.2882 22.3687C53.7934 22.3687 50.934 25.228 50.934 28.7229V47.7855C50.934 51.2803 53.7934 54.1397 57.2882 54.1397H63.6424C67.1372 54.1397 69.9966 51.2803 69.9966 47.7855V35.0771H63.6424V47.7855H57.2882V28.7229H69.9966V22.3687H57.2882ZM6.4545 22.3687V54.1397H25.5171V47.7855H12.8087V22.3687H6.4545ZM35.0485 22.3687C31.5536 22.3687 28.6942 25.228 28.6942 28.7229V47.7855C28.6942 51.2803 31.5536 54.1397 35.0485 54.1397H41.4027C44.8975 54.1397 47.7569 51.2803 47.7569 47.7855V28.7229C47.7569 25.228 44.8975 22.3687 41.4027 22.3687H35.0485ZM35.0485 28.7229H41.4027V47.7855H35.0485V28.7229Z" fill="white"/>
</svg>
