<svg width="78" height="78" viewBox="0 0 78 78" fill="none" xmlns="http://www.w3.org/2000/svg">
<path d="M46.247 39.1131L62.9752 22.3849C63.453 21.9148 63.8331 21.3548 64.0935 20.7371C64.3539 20.1195 64.4894 19.4563 64.4922 18.786C64.495 18.1157 64.3651 17.4515 64.1099 16.8317C63.8547 16.2118 63.4793 15.6486 63.0054 15.1746C62.5314 14.7005 61.9683 14.325 61.3486 14.0697C60.7288 13.8144 60.0646 13.6843 59.3943 13.6869C58.724 13.6896 58.0608 13.8249 57.4431 14.0851C56.8253 14.3454 56.2652 14.7253 55.7951 15.2031L39.0669 31.9313L22.3387 15.2048C21.8671 14.7332 21.3073 14.3592 20.6912 14.1039C20.075 13.8487 19.4147 13.7174 18.7478 13.7174C18.0809 13.7174 17.4205 13.8487 16.8044 14.1039C16.1883 14.3592 15.6284 14.7332 15.1569 15.2048C14.2045 16.1572 13.6695 17.4488 13.6695 18.7957C13.6695 20.1425 14.2045 21.4342 15.1569 22.3866L31.8851 39.1131L15.1163 55.8819C14.1769 56.8369 13.6529 58.1244 13.6586 59.464C13.6642 60.8036 14.1989 62.0866 15.1462 63.0337C16.0935 63.9809 17.3767 64.5153 18.7163 64.5206C20.0559 64.5259 21.3433 64.0016 22.2981 63.062L39.0652 46.2949L55.7917 63.0214C56.7836 64.0133 58.0835 64.5092 59.3817 64.5092C60.68 64.5092 61.9799 64.0133 62.9718 63.0214C63.4435 62.5501 63.8178 61.9905 64.0731 61.3745C64.3285 60.7585 64.4599 60.0982 64.4599 59.4313C64.4599 58.7645 64.3285 58.1042 64.0731 57.4882C63.8178 56.8722 63.4435 56.3126 62.9718 55.8413L46.247 39.1131Z" fill="white"/>
</svg>
