<svg width="116" height="26" viewBox="0 0 116 26" fill="none" xmlns="http://www.w3.org/2000/svg">
<path d="M45.4961 17C45.3102 16.6989 45.0888 16.3756 44.8319 16.0302C44.5839 15.676 44.3094 15.3261 44.0083 14.9807C43.716 14.6265 43.4105 14.29 43.0916 13.9711C42.7728 13.6434 42.454 13.3556 42.1352 13.1076V17H40.0628V7.79381H42.1352V11.2744C42.6754 10.7076 43.2156 10.1186 43.7559 9.50752C44.305 8.88757 44.8142 8.31634 45.2836 7.79381H47.7412C47.1124 8.53774 46.4792 9.25511 45.8415 9.94591C45.2127 10.6367 44.5485 11.3319 43.8489 12.0316C44.5839 12.6427 45.2924 13.3689 45.9744 14.2102C46.6652 15.0516 47.325 15.9815 47.9538 17H45.4961ZM52.1141 17C51.751 16.2295 51.3923 15.428 51.0381 14.5955C50.6838 13.763 50.3473 12.9394 50.0285 12.1246C49.7096 11.3098 49.4129 10.5304 49.1384 9.78649C48.8727 9.04256 48.6424 8.37833 48.4476 7.79381H50.7325C50.9097 8.32519 51.1001 8.90086 51.3038 9.5208C51.5163 10.1319 51.7289 10.743 51.9414 11.3541C52.1628 11.9652 52.3754 12.5497 52.5791 13.1076C52.7828 13.6656 52.9732 14.1483 53.1503 14.5556C53.3186 14.1483 53.5046 13.6656 53.7083 13.1076C53.9208 12.5497 54.1334 11.9652 54.3459 11.3541C54.5673 10.743 54.7799 10.1319 54.9836 9.5208C55.1961 8.90086 55.391 8.32519 55.5681 7.79381H57.7733C57.5696 8.37833 57.335 9.04256 57.0693 9.78649C56.8036 10.5304 56.5113 11.3098 56.1925 12.1246C55.8737 12.9394 55.5371 13.763 55.1829 14.5955C54.8286 15.428 54.4699 16.2295 54.1068 17H52.1141ZM62.0334 17.1196C61.5286 17.1196 61.0238 17.1018 60.519 17.0664C60.023 17.0399 59.5049 16.969 58.9647 16.8539V7.92666C59.3898 7.84695 59.8548 7.78938 60.3596 7.75396C60.8644 7.70967 61.3338 7.68753 61.7677 7.68753C62.3523 7.68753 62.8881 7.73182 63.3752 7.82038C63.8711 7.90009 64.2962 8.04179 64.6505 8.24548C65.0047 8.44918 65.2793 8.7193 65.4741 9.05584C65.6778 9.38353 65.7797 9.79092 65.7797 10.278C65.7797 11.0131 65.4254 11.5932 64.7169 12.0183C65.3014 12.2397 65.7 12.5408 65.9125 12.9216C66.1251 13.3025 66.2313 13.732 66.2313 14.2102C66.2313 15.1756 65.8771 15.9018 65.1686 16.3889C64.4689 16.876 63.4239 17.1196 62.0334 17.1196ZM60.984 12.9881V15.366C61.1345 15.3837 61.2984 15.397 61.4755 15.4059C61.6526 15.4147 61.8474 15.4191 62.06 15.4191C62.6799 15.4191 63.1803 15.3306 63.5612 15.1534C63.942 14.9763 64.1324 14.6486 64.1324 14.1704C64.1324 13.7453 63.973 13.4442 63.6541 13.267C63.3353 13.0811 62.8792 12.9881 62.2858 12.9881H60.984ZM60.984 11.4072H61.9936C62.6312 11.4072 63.0873 11.3275 63.3619 11.1681C63.6364 10.9998 63.7737 10.7341 63.7737 10.371C63.7737 9.99904 63.632 9.73778 63.3486 9.58722C63.0652 9.43667 62.6489 9.36139 62.0999 9.36139C61.9227 9.36139 61.7323 9.36581 61.5286 9.37467C61.3249 9.37467 61.1434 9.38353 60.984 9.40124V11.4072ZM70.401 15.4191C70.6933 15.4191 70.9324 15.397 71.1184 15.3527C71.3132 15.2996 71.4682 15.2332 71.5834 15.1534C71.6985 15.0649 71.7782 14.963 71.8225 14.8479C71.8668 14.7328 71.8889 14.6044 71.8889 14.4627C71.8889 14.1615 71.7472 13.9136 71.4638 13.7187C71.1804 13.515 70.6933 13.298 70.0025 13.0678C69.7014 12.9615 69.4003 12.8419 69.0991 12.7091C68.798 12.5674 68.5279 12.3947 68.2888 12.191C68.0497 11.9784 67.8548 11.726 67.7043 11.4338C67.5537 11.1327 67.4784 10.7695 67.4784 10.3444C67.4784 9.91934 67.5581 9.53851 67.7176 9.20197C67.877 8.85657 68.1028 8.56431 68.3951 8.32519C68.6873 8.08607 69.0416 7.90451 69.4578 7.78053C69.8741 7.64768 70.3435 7.58126 70.866 7.58126C71.4859 7.58126 72.0217 7.64768 72.4734 7.78053C72.9251 7.91337 73.2971 8.0595 73.5893 8.21892L72.9915 9.85291C72.7347 9.72007 72.4469 9.60494 72.128 9.50752C71.818 9.40124 71.4417 9.3481 70.9988 9.3481C70.5029 9.3481 70.1442 9.41895 69.9228 9.56065C69.7102 9.6935 69.604 9.90162 69.604 10.185C69.604 10.3533 69.6438 10.495 69.7235 10.6101C69.8032 10.7253 69.9139 10.8315 70.0556 10.929C70.2062 11.0175 70.3745 11.1017 70.5604 11.1814C70.7553 11.2522 70.9678 11.3275 71.1981 11.4072C71.6763 11.5843 72.0926 11.7615 72.4469 11.9386C72.8011 12.1069 73.0934 12.3061 73.3236 12.5364C73.5628 12.7667 73.7399 13.0368 73.855 13.3468C73.9701 13.6567 74.0277 14.0331 74.0277 14.4759C74.0277 15.335 73.7266 16.0037 73.1244 16.4819C72.5221 16.9513 71.6144 17.186 70.401 17.186C69.9936 17.186 69.6261 17.1594 69.2984 17.1063C68.9707 17.062 68.6785 17.0044 68.4216 16.9336C68.1737 16.8627 67.9567 16.7874 67.7707 16.7077C67.5936 16.628 67.443 16.5528 67.319 16.4819L67.9035 14.8346C68.1781 14.9852 68.5146 15.1225 68.9132 15.2464C69.3206 15.3616 69.8165 15.4191 70.401 15.4191ZM77.3625 12.3903C77.3625 12.8419 77.4157 13.2493 77.522 13.6124C77.6371 13.9756 77.7965 14.29 78.0002 14.5556C78.2128 14.8125 78.4696 15.0117 78.7707 15.1534C79.0718 15.2951 79.4172 15.366 79.8069 15.366C80.1877 15.366 80.5287 15.2951 80.8298 15.1534C81.1398 15.0117 81.3966 14.8125 81.6003 14.5556C81.8129 14.29 81.9723 13.9756 82.0786 13.6124C82.1937 13.2493 82.2513 12.8419 82.2513 12.3903C82.2513 11.9386 82.1937 11.5312 82.0786 11.1681C81.9723 10.7961 81.8129 10.4817 81.6003 10.2249C81.3966 9.95919 81.1398 9.75549 80.8298 9.61379C80.5287 9.47209 80.1877 9.40124 79.8069 9.40124C79.4172 9.40124 79.0718 9.47652 78.7707 9.62708C78.4696 9.76878 78.2128 9.97248 78.0002 10.2382C77.7965 10.495 77.6371 10.8094 77.522 11.1814C77.4157 11.5445 77.3625 11.9474 77.3625 12.3903ZM84.3901 12.3903C84.3901 13.1785 84.2705 13.8737 84.0314 14.4759C83.8011 15.0693 83.4823 15.5697 83.0749 15.9771C82.6675 16.3756 82.1804 16.6767 81.6136 16.8804C81.0557 17.0841 80.4534 17.186 79.8069 17.186C79.1781 17.186 78.5847 17.0841 78.0268 16.8804C77.4688 16.6767 76.9817 16.3756 76.5655 15.9771C76.1492 15.5697 75.8215 15.0693 75.5824 14.4759C75.3433 13.8737 75.2237 13.1785 75.2237 12.3903C75.2237 11.602 75.3477 10.9112 75.5957 10.3179C75.8437 9.71564 76.1758 9.21083 76.592 8.80344C77.0172 8.39604 77.5043 8.0905 78.0533 7.8868C78.6113 7.68311 79.1958 7.58126 79.8069 7.58126C80.4357 7.58126 81.0291 7.68311 81.587 7.8868C82.145 8.0905 82.6321 8.39604 83.0483 8.80344C83.4646 9.21083 83.7923 9.71564 84.0314 10.3179C84.2705 10.9112 84.3901 11.602 84.3901 12.3903ZM92.2949 17C91.7015 15.9461 91.0594 14.9055 90.3686 13.8781C89.6778 12.8508 88.9428 11.881 88.1634 10.9688V17H86.1176V7.79381H87.8047C88.097 8.08607 88.4202 8.44475 88.7745 8.86986C89.1287 9.29496 89.4874 9.75107 89.8505 10.2382C90.2225 10.7164 90.59 11.2168 90.9532 11.7393C91.3163 12.253 91.6572 12.7489 91.9761 13.2272V7.79381H94.0352V17H92.2949ZM96.1588 7.79381H98.2312V17H96.1588V7.79381ZM105.796 17C105.61 16.6989 105.388 16.3756 105.131 16.0302C104.883 15.676 104.609 15.3261 104.308 14.9807C104.015 14.6265 103.71 14.29 103.391 13.9711C103.072 13.6434 102.753 13.3556 102.435 13.1076V17H100.362V7.79381H102.435V11.2744C102.975 10.7076 103.515 10.1186 104.055 9.50752C104.604 8.88757 105.114 8.31634 105.583 7.79381H108.041C107.412 8.53774 106.779 9.25511 106.141 9.94591C105.512 10.6367 104.848 11.3319 104.148 12.0316C104.883 12.6427 105.592 13.3689 106.274 14.2102C106.965 15.0516 107.624 15.9815 108.253 17H105.796Z" fill="white"/>
<path d="M18.7643 25.1809V20.7347C19.6515 20.5637 20.4322 20.2454 21.1065 19.7799C21.7807 19.3144 22.353 18.7443 22.8232 18.0698C23.2934 17.3953 23.6483 16.64 23.8878 15.804C24.1274 14.9774 24.2471 14.0986 24.2471 13.1676C24.2471 11.486 23.8523 9.9802 23.0627 8.65014C22.2731 7.32958 21.1153 6.28453 19.5894 5.515C18.0634 4.75496 16.2003 4.37495 14 4.37495C11.782 4.37495 9.91001 4.75496 8.38403 5.515C6.85805 6.28453 5.70469 7.33433 4.92395 8.66439C4.14322 9.99445 3.75285 11.4908 3.75285 13.1533C3.75285 14.0749 3.86819 14.9489 4.09886 15.7755C4.3384 16.6115 4.68885 17.3668 5.15019 18.0413C5.61153 18.7158 6.1749 19.2859 6.8403 19.7514C7.51458 20.2264 8.28644 20.5542 9.15589 20.7347L9.14259 25.1809C7.80292 24.9434 6.56971 24.4826 5.44297 23.7986C4.3251 23.124 3.35805 22.2548 2.54183 21.1907C1.73447 20.1362 1.109 18.9296 0.665399 17.571C0.2218 16.2125 0 14.7304 0 13.1248C0 10.5977 0.558935 8.34613 1.67681 6.37004C2.80355 4.39395 4.41382 2.83588 6.5076 1.69583C8.60139 0.565276 11.0989 0 14 0C16.91 0 19.4075 0.570026 21.4924 1.71008C23.5862 2.85013 25.192 4.4082 26.3099 6.38429C27.4366 8.36038 28 10.6072 28 13.1248C28 14.6734 27.7915 16.1175 27.3745 17.457C26.9664 18.8061 26.3631 20.0174 25.5646 21.091C24.775 22.1645 23.808 23.0528 22.6635 23.7558C21.5279 24.4589 20.2281 24.9339 18.7643 25.1809Z" fill="#8EC5FC"/>
<path d="M18.7643 25.1809V20.7347C19.6515 20.5637 20.4322 20.2454 21.1065 19.7799C21.7807 19.3144 22.353 18.7443 22.8232 18.0698C23.2934 17.3953 23.6483 16.64 23.8878 15.804C24.1274 14.9774 24.2471 14.0986 24.2471 13.1676C24.2471 11.486 23.8523 9.9802 23.0627 8.65014C22.2731 7.32958 21.1153 6.28453 19.5894 5.515C18.0634 4.75496 16.2003 4.37495 14 4.37495C11.782 4.37495 9.91001 4.75496 8.38403 5.515C6.85805 6.28453 5.70469 7.33433 4.92395 8.66439C4.14322 9.99445 3.75285 11.4908 3.75285 13.1533C3.75285 14.0749 3.86819 14.9489 4.09886 15.7755C4.3384 16.6115 4.68885 17.3668 5.15019 18.0413C5.61153 18.7158 6.1749 19.2859 6.8403 19.7514C7.51458 20.2264 8.28644 20.5542 9.15589 20.7347L9.14259 25.1809C7.80292 24.9434 6.56971 24.4826 5.44297 23.7986C4.3251 23.124 3.35805 22.2548 2.54183 21.1907C1.73447 20.1362 1.109 18.9296 0.665399 17.571C0.2218 16.2125 0 14.7304 0 13.1248C0 10.5977 0.558935 8.34613 1.67681 6.37004C2.80355 4.39395 4.41382 2.83588 6.5076 1.69583C8.60139 0.565276 11.0989 0 14 0C16.91 0 19.4075 0.570026 21.4924 1.71008C23.5862 2.85013 25.192 4.4082 26.3099 6.38429C27.4366 8.36038 28 10.6072 28 13.1248C28 14.6734 27.7915 16.1175 27.3745 17.457C26.9664 18.8061 26.3631 20.0174 25.5646 21.091C24.775 22.1645 23.808 23.0528 22.6635 23.7558C21.5279 24.4589 20.2281 24.9339 18.7643 25.1809Z" fill="url(#paint0_linear_125_142)"/>
<defs>
<linearGradient id="paint0_linear_125_142" x1="17.2253" y1="25.1809" x2="4.94539" y2="7.81229" gradientUnits="userSpaceOnUse">
<stop stop-color="#E0C3FC"/>
<stop offset="1" stop-color="#8EC5FC"/>
</linearGradient>
</defs>
</svg>
