<svg width="261" height="45" viewBox="0 0 261 45" fill="none" xmlns="http://www.w3.org/2000/svg">
<path d="M21.6242 30.9467L26.8279 25.743L21.6242 20.5392L24.2168 17.9465L29.4206 23.1503L34.6244 17.9465L37.2171 20.5392L32.0133 25.743L37.2171 30.9467L34.6244 33.5394L29.4206 28.3357L24.2168 33.5394L21.6242 30.9467ZM3.67761 20.2266H9.19397L13.4048 30.156L18.3879 11.0327H40.4533V14.7103H21.238L15.9607 34.9369H11.4373L6.76677 23.9042H3.67761V20.2266Z" fill="white"/>
<path d="M77.6627 14.6853V30.087H74.5735V20.0693L70.4473 30.087H68.1084L63.9601 20.0693V30.087H60.8709V14.6853H64.3793L69.2778 26.1373L74.1764 14.6853H77.6627ZM79.9225 23.9307C79.9225 22.6951 80.1652 21.5991 80.6507 20.643C81.1508 19.6868 81.8201 18.9513 82.6586 18.4364C83.5118 17.9216 84.4606 17.6641 85.5051 17.6641C86.4171 17.6641 87.2114 17.848 87.8881 18.2158C88.5795 18.5835 89.1311 19.0469 89.543 19.6059V17.8627H92.6542V30.087H89.543V28.2997C89.1458 28.8734 88.5942 29.3515 87.8881 29.7339C87.1967 30.1017 86.395 30.2856 85.483 30.2856C84.4533 30.2856 83.5118 30.0208 82.6586 29.4912C81.8201 28.9616 81.1508 28.2188 80.6507 27.2626C80.1652 26.2917 79.9225 25.1811 79.9225 23.9307ZM89.543 23.9749C89.543 23.2246 89.3959 22.5847 89.1017 22.0552C88.8075 21.5109 88.4103 21.099 87.9102 20.8195C87.41 20.5253 86.8731 20.3782 86.2994 20.3782C85.7257 20.3782 85.1961 20.5179 84.7107 20.7974C84.2253 21.0769 83.8281 21.4888 83.5192 22.0331C83.225 22.5627 83.0779 23.1952 83.0779 23.9307C83.0779 24.6662 83.225 25.3135 83.5192 25.8725C83.8281 26.4168 84.2253 26.836 84.7107 27.1302C85.2108 27.4244 85.7404 27.5715 86.2994 27.5715C86.8731 27.5715 87.41 27.4318 87.9102 27.1523C88.4103 26.8581 88.8075 26.4462 89.1017 25.9166C89.3959 25.3723 89.543 24.7251 89.543 23.9749ZM99.268 20.4003V26.3138C99.268 26.7257 99.3636 27.0272 99.5549 27.2185C99.7608 27.395 100.099 27.4833 100.57 27.4833H102.004V30.087H100.062C97.4586 30.087 96.1568 28.8219 96.1568 26.2917V20.4003H94.7005V17.8627H96.1568V14.8398H99.268V17.8627H102.004V20.4003H99.268ZM111.11 17.6862C112.037 17.6862 112.861 17.8922 113.582 18.304C114.303 18.7012 114.862 19.297 115.259 20.0913C115.671 20.871 115.877 21.8124 115.877 22.9157V30.087H112.787V23.335C112.787 22.3641 112.545 21.6212 112.059 21.1063C111.574 20.5768 110.912 20.312 110.073 20.312C109.22 20.312 108.543 20.5768 108.043 21.1063C107.558 21.6212 107.315 22.3641 107.315 23.335V30.087H104.226V13.7586H107.315V19.3852C107.712 18.8557 108.242 18.4438 108.904 18.1496C109.566 17.8407 110.301 17.6862 111.11 17.6862ZM140.864 14.6853V30.087H137.775V20.0693L133.648 30.087H131.309L127.161 20.0693V30.087H124.072V14.6853H127.58L132.479 26.1373L137.377 14.6853H140.864ZM143.124 23.9307C143.124 22.6951 143.366 21.5991 143.852 20.643C144.352 19.6868 145.021 18.9513 145.86 18.4364C146.713 17.9216 147.662 17.6641 148.706 17.6641C149.618 17.6641 150.413 17.848 151.089 18.2158C151.781 18.5835 152.332 19.0469 152.744 19.6059V17.8627H155.855V30.087H152.744V28.2997C152.347 28.8734 151.795 29.3515 151.089 29.7339C150.398 30.1017 149.596 30.2856 148.684 30.2856C147.654 30.2856 146.713 30.0208 145.86 29.4912C145.021 28.9616 144.352 28.2188 143.852 27.2626C143.366 26.2917 143.124 25.1811 143.124 23.9307ZM152.744 23.9749C152.744 23.2246 152.597 22.5847 152.303 22.0552C152.009 21.5109 151.611 21.099 151.111 20.8195C150.611 20.5253 150.074 20.3782 149.5 20.3782C148.927 20.3782 148.397 20.5179 147.912 20.7974C147.426 21.0769 147.029 21.4888 146.72 22.0331C146.426 22.5627 146.279 23.1952 146.279 23.9307C146.279 24.6662 146.426 25.3135 146.72 25.8725C147.029 26.4168 147.426 26.836 147.912 27.1302C148.412 27.4244 148.941 27.5715 149.5 27.5715C150.074 27.5715 150.611 27.4318 151.111 27.1523C151.611 26.8581 152.009 26.4462 152.303 25.9166C152.597 25.3723 152.744 24.7251 152.744 23.9749ZM163.55 30.2856C162.55 30.2856 161.653 30.109 160.858 29.756C160.064 29.3882 159.431 28.8954 158.961 28.2776C158.505 27.6598 158.255 26.9758 158.21 26.2255H161.322C161.381 26.6963 161.609 27.0861 162.006 27.395C162.418 27.7039 162.925 27.8584 163.528 27.8584C164.117 27.8584 164.573 27.7407 164.896 27.5053C165.235 27.27 165.404 26.9684 165.404 26.6006C165.404 26.2035 165.198 25.9093 164.786 25.718C164.389 25.5121 163.749 25.2914 162.866 25.0561C161.954 24.8354 161.204 24.6074 160.616 24.372C160.042 24.1367 159.542 23.7763 159.115 23.2908C158.703 22.8054 158.497 22.1508 158.497 21.327C158.497 20.6503 158.689 20.0325 159.071 19.4735C159.468 18.9145 160.027 18.4732 160.748 18.1496C161.483 17.826 162.344 17.6641 163.33 17.6641C164.786 17.6641 165.948 18.0319 166.816 18.7674C167.684 19.4882 168.162 20.4665 168.25 21.7021H165.293C165.249 21.2167 165.043 20.8342 164.676 20.5547C164.323 20.2605 163.844 20.1134 163.241 20.1134C162.682 20.1134 162.248 20.2164 161.939 20.4223C161.645 20.6283 161.498 20.9151 161.498 21.2829C161.498 21.6948 161.704 22.011 162.116 22.2317C162.528 22.4376 163.168 22.6509 164.036 22.8716C164.918 23.0922 165.646 23.3202 166.22 23.5556C166.794 23.791 167.287 24.1587 167.699 24.6589C168.125 25.1443 168.346 25.7916 168.361 26.6006C168.361 27.3067 168.162 27.9393 167.765 28.4983C167.382 29.0573 166.823 29.4986 166.088 29.8222C165.367 30.1311 164.521 30.2856 163.55 30.2856ZM174.493 20.4003V26.3138C174.493 26.7257 174.589 27.0272 174.78 27.2185C174.986 27.395 175.324 27.4833 175.795 27.4833H177.229V30.087H175.287C172.684 30.087 171.382 28.8219 171.382 26.2917V20.4003H169.925V17.8627H171.382V14.8398H174.493V17.8627H177.229V20.4003H174.493ZM190.815 23.7101C190.815 24.1514 190.785 24.5486 190.726 24.9016H181.79C181.863 25.7842 182.172 26.4756 182.717 26.9758C183.261 27.4759 183.93 27.726 184.725 27.726C185.872 27.726 186.688 27.2332 187.174 26.2476H190.506C190.153 27.4244 189.476 28.3953 188.476 29.1602C187.475 29.9105 186.247 30.2856 184.791 30.2856C183.614 30.2856 182.555 30.0281 181.613 29.5133C180.687 28.9837 179.959 28.2408 179.429 27.2847C178.914 26.3285 178.657 25.2252 178.657 23.9749C178.657 22.7098 178.914 21.5991 179.429 20.643C179.944 19.6868 180.665 18.9513 181.591 18.4364C182.518 17.9216 183.585 17.6641 184.791 17.6641C185.953 17.6641 186.99 17.9142 187.902 18.4144C188.829 18.9145 189.542 19.628 190.042 20.5547C190.557 21.4668 190.815 22.5185 190.815 23.7101ZM187.615 22.8275C187.6 22.0331 187.314 21.4006 186.755 20.9298C186.196 20.4444 185.512 20.2017 184.703 20.2017C183.938 20.2017 183.29 20.437 182.761 20.9078C182.246 21.3638 181.93 22.0037 181.812 22.8275H187.615ZM196.159 19.7604C196.556 19.1131 197.071 18.6056 197.703 18.2378C198.35 17.8701 199.086 17.6862 199.91 17.6862V20.9298H199.093C198.122 20.9298 197.387 21.1578 196.887 21.6139C196.401 22.0699 196.159 22.8642 196.159 23.9969V30.087H193.069V17.8627H196.159V19.7604ZM217.171 17.6862C218.672 17.6862 219.878 18.1496 220.79 19.0763C221.717 19.9884 222.18 21.2682 222.18 22.9157V30.087H219.091V23.335C219.091 22.3788 218.848 21.6506 218.363 21.1505C217.878 20.6356 217.216 20.3782 216.377 20.3782C215.539 20.3782 214.869 20.6356 214.369 21.1505C213.884 21.6506 213.641 22.3788 213.641 23.335V30.087H210.552V23.335C210.552 22.3788 210.309 21.6506 209.824 21.1505C209.338 20.6356 208.676 20.3782 207.838 20.3782C206.985 20.3782 206.308 20.6356 205.808 21.1505C205.322 21.6506 205.08 22.3788 205.08 23.335V30.087H201.99V17.8627H205.08V19.3411C205.477 18.8263 205.984 18.4217 206.602 18.1275C207.235 17.8333 207.926 17.6862 208.676 17.6862C209.632 17.6862 210.486 17.8922 211.236 18.304C211.986 18.7012 212.567 19.2749 212.979 20.0251C213.376 19.319 213.95 18.7527 214.7 18.3261C215.465 17.8995 216.289 17.6862 217.171 17.6862ZM226.678 16.4064C226.134 16.4064 225.678 16.2372 225.31 15.8989C224.957 15.5459 224.781 15.1119 224.781 14.597C224.781 14.0822 224.957 13.6556 225.31 13.3173C225.678 12.9642 226.134 12.7877 226.678 12.7877C227.223 12.7877 227.671 12.9642 228.024 13.3173C228.392 13.6556 228.576 14.0822 228.576 14.597C228.576 15.1119 228.392 15.5459 228.024 15.8989C227.671 16.2372 227.223 16.4064 226.678 16.4064ZM228.201 17.8627V30.087H225.112V17.8627H228.201ZM238.027 17.6862C239.483 17.6862 240.66 18.1496 241.558 19.0763C242.455 19.9884 242.904 21.2682 242.904 22.9157V30.087H239.814V23.335C239.814 22.3641 239.572 21.6212 239.086 21.1063C238.601 20.5768 237.939 20.312 237.1 20.312C236.247 20.312 235.57 20.5768 235.07 21.1063C234.585 21.6212 234.342 22.3641 234.342 23.335V30.087H231.253V17.8627H234.342V19.3852C234.754 18.8557 235.276 18.4438 235.909 18.1496C236.556 17.8407 237.262 17.6862 238.027 17.6862ZM245.047 23.9307C245.047 22.6951 245.29 21.5991 245.775 20.643C246.275 19.6868 246.952 18.9513 247.805 18.4364C248.658 17.9216 249.607 17.6641 250.651 17.6641C251.446 17.6641 252.203 17.8407 252.924 18.1937C253.645 18.532 254.219 18.9881 254.645 19.5618V13.7586H257.779V30.087H254.645V28.2776C254.263 28.8807 253.726 29.3662 253.035 29.7339C252.343 30.1017 251.541 30.2856 250.629 30.2856C249.6 30.2856 248.658 30.0208 247.805 29.4912C246.952 28.9616 246.275 28.2188 245.775 27.2626C245.29 26.2917 245.047 25.1811 245.047 23.9307ZM254.667 23.9749C254.667 23.2246 254.52 22.5847 254.226 22.0552C253.932 21.5109 253.535 21.099 253.035 20.8195C252.534 20.5253 251.997 20.3782 251.424 20.3782C250.85 20.3782 250.32 20.5179 249.835 20.7974C249.35 21.0769 248.952 21.4888 248.644 22.0331C248.349 22.5627 248.202 23.1952 248.202 23.9307C248.202 24.6662 248.349 25.3135 248.644 25.8725C248.952 26.4168 249.35 26.836 249.835 27.1302C250.335 27.4244 250.865 27.5715 251.424 27.5715C251.997 27.5715 252.534 27.4318 253.035 27.1523C253.535 26.8581 253.932 26.4462 254.226 25.9166C254.52 25.3723 254.667 24.7251 254.667 23.9749Z" fill="white"/>
</svg>
