<svg width="83" height="24" viewBox="0 0 83 24" fill="none" xmlns="http://www.w3.org/2000/svg">
<path d="M3.17037 20.3708C2.85501 17.4418 3.05185 15.8003 3.17037 12.7781C3.27094 10.2135 3.22305 6.73467 4.92326 4.82962C6.33108 3.25217 9.56929 2.45191 11.7371 3.42172C14.4335 4.62802 14.8795 8.63059 15.1227 11.1664C15.3819 13.8691 14.89 17.806 17.1925 19.7842C19.1295 21.4484 24.1765 21.0761 25.9375 19.3151C28.447 16.8056 26.8646 7.0896 27.1702 3.42171" stroke="url(#paint0_linear_110_119)" stroke-width="4.40259" stroke-linecap="round" stroke-linejoin="round"/>
<path d="M41.4619 6.92679C42.8435 6.92679 43.9018 7.17477 44.6369 7.67073C45.372 8.15783 45.7395 8.91947 45.7395 9.95567C45.7395 10.6022 45.589 11.1291 45.2879 11.5365C44.9956 11.9351 44.5705 12.2495 44.0126 12.4797C44.1985 12.71 44.3934 12.9757 44.5971 13.2768C44.8008 13.5691 45 13.879 45.1949 14.2067C45.3986 14.5256 45.5934 14.8621 45.7794 15.2163C45.9654 15.5617 46.1381 15.9027 46.2975 16.2393H43.9727C43.8044 15.9381 43.6317 15.6326 43.4546 15.3226C43.2863 15.0127 43.1092 14.7115 42.9232 14.4193C42.7461 14.127 42.569 13.8525 42.3918 13.5956C42.2147 13.3299 42.0376 13.0908 41.8605 12.8783H40.8375V16.2393H38.7652V7.16591C39.2168 7.07735 39.6818 7.01536 40.16 6.97993C40.6471 6.9445 41.0811 6.92679 41.4619 6.92679ZM41.5815 8.69364C41.4309 8.69364 41.2936 8.69806 41.1697 8.70692C41.0545 8.71578 40.9438 8.72463 40.8375 8.73349V11.231H41.4221C42.2014 11.231 42.7594 11.1336 43.0959 10.9387C43.4325 10.7439 43.6007 10.4118 43.6007 9.94238C43.6007 9.49071 43.428 9.17188 43.0826 8.9859C42.7461 8.79106 42.2457 8.69364 41.5815 8.69364ZM47.6258 16.2393V7.03307H53.843V8.77334H49.6982V10.58H53.3781V12.2805H49.6982V14.499H54.1486V16.2393H47.6258ZM58.5615 16.2393C58.1984 15.4688 57.8397 14.6673 57.4855 13.8348C57.1312 13.0023 56.7947 12.1786 56.4758 11.3638C56.157 10.549 55.8603 9.76968 55.5858 9.02575C55.3201 8.28181 55.0898 7.61759 54.895 7.03307H57.1799C57.357 7.56445 57.5475 8.14011 57.7512 8.76006C57.9637 9.37115 58.1763 9.98224 58.3888 10.5933C58.6102 11.2044 58.8228 11.7889 59.0265 12.3469C59.2302 12.9048 59.4206 13.3875 59.5977 13.7949C59.766 13.3875 59.952 12.9048 60.1557 12.3469C60.3682 11.7889 60.5808 11.2044 60.7933 10.5933C61.0147 9.98224 61.2273 9.37115 61.431 8.76006C61.6435 8.14011 61.8384 7.56445 62.0155 7.03307H64.2207C64.017 7.61759 63.7823 8.28181 63.5167 9.02575C63.251 9.76968 62.9587 10.549 62.6399 11.3638C62.321 12.1786 61.9845 13.0023 61.6302 13.8348C61.276 14.6673 60.9173 15.4688 60.5542 16.2393H58.5615ZM70.8455 16.2393C70.6595 15.9381 70.4381 15.6149 70.1812 15.2695C69.9333 14.9152 69.6587 14.5654 69.3576 14.22C69.0653 13.8658 68.7598 13.5292 68.441 13.2104C68.1221 12.8827 67.8033 12.5949 67.4845 12.3469V16.2393H65.4121V7.03307H67.4845V10.5136C68.0247 9.94681 68.5649 9.35786 69.1052 8.74677C69.6543 8.12683 70.1635 7.55559 70.6329 7.03307H73.0906C72.4617 7.777 71.8285 8.49437 71.1909 9.18516C70.5621 9.87596 69.8978 10.5712 69.1982 11.2708C69.9333 11.8819 70.6418 12.6081 71.3237 13.4495C72.0145 14.2909 72.6743 15.2208 73.3031 16.2393H70.8455ZM78.0934 16.4252C77.4469 16.4252 76.889 16.3367 76.4196 16.1596C75.9502 15.9736 75.5605 15.7212 75.2505 15.4023C74.9494 15.0746 74.7236 14.6894 74.573 14.2466C74.4313 13.7949 74.3605 13.2989 74.3605 12.7587V7.03307H76.4329V12.586C76.4329 12.958 76.4727 13.2768 76.5524 13.5425C76.641 13.7993 76.7561 14.0119 76.8978 14.1802C77.0484 14.3396 77.2255 14.4547 77.4292 14.5256C77.6418 14.5964 77.872 14.6318 78.12 14.6318C78.6248 14.6318 79.0322 14.4768 79.3422 14.1669C79.661 13.8569 79.8204 13.3299 79.8204 12.586V7.03307H81.8928V12.7587C81.8928 13.2989 81.8175 13.7949 81.667 14.2466C81.5164 14.6983 81.2861 15.0879 80.9762 15.4156C80.6662 15.7344 80.2721 15.9824 79.7939 16.1596C79.3156 16.3367 78.7488 16.4252 78.0934 16.4252Z" fill="white"/>
<defs>
<linearGradient id="paint0_linear_110_119" x1="-2.01895" y1="11.8052" x2="32.4974" y2="11.8052" gradientUnits="userSpaceOnUse">
<stop stop-color="#BD00FF"/>
<stop offset="1" stop-color="#5369DD"/>
</linearGradient>
</defs>
</svg>
